<?xml version="1.0" encoding="UTF-8"?>
<svg width="269.69" height="76.387" version="1.1" viewBox="0 0 269.69 76.387" xmlns="http://www.w3.org/2000/svg" xmlns:cc="http://creativecommons.org/ns#" xmlns:dc="http://purl.org/dc/elements/1.1/" xmlns:rdf="http://www.w3.org/1999/02/22-rdf-syntax-ns#">
 <metadata>
  <rdf:RDF>
   <cc:Work rdf:about="">
    <dc:format>image/svg+xml</dc:format>
    <dc:type rdf:resource="http://purl.org/dc/dcmitype/StillImage"/>
    <dc:title/>
   </cc:Work>
  </rdf:RDF>
 </metadata>
 <g transform="translate(-2.6464 -1.4332)">
  <g transform="matrix(.98719 0 0 .95617 2.7479 1.0197)" fill="#fff" stroke="#000" stroke-width=".1">
   <path d="m188.84 43.828-16.449 36.074h3.6758l4.3789-9.6875h20.277l4.334 9.6777h3.9336l-16.525-36.057zm1.832 3.791 8.7617 19.617h-17.584z"/>
   <path d="m47.012 1.7845 16.002 36.071 3.8031 0.02925 15.914-36.071-3.7738-0.029254-13.925 31.332-13.925-31.302z"/>
   <path d="m87.897 1.8396h3.7731v36.046h-3.762z"/>
   <path d="m130.05 30.5 2.4258 2.4258c-4.9805 5.1481-10.325 5.1805-11.786 5.3022-6.7226 0.28996-12.102-1.7069-15.777-6.0546-2.6071-2.2829-4.4219-7.3298-4.5962-11.314 2e-3 -3.1384 0.20567-5.942 1.898-9.3284 1.6199-3.1515 4.4836-6.6853 8.6641-8.3047 4.2492-1.9066 8.7674-2.2591 13.547-1.1016 4.281 0.96188 6.1024 2.8021 7.9726 4.625l-2.3379 2.3379c-2.7696-2.2439-4.7028-3.9009-10.08-4.2415-5.5167-0.073575-8.0528 1.7869-11.059 3.8176-2.5544 2.3763-3.7434 5.1167-4.543 7.9609-1.2039 8.7267 2.8776 12.611 3.3672 13.203 4.745 4.7627 8.495 4.8429 12.264 5.0135 5.6942-0.44116 7.9924-2.3378 10.04-4.3416z"/>
   <path d="m147.23 37.871h3.6758l0.0156-32.805h12.656v-3.1914h-29.074v3.1602h12.715z"/>
   <path d="m184.04 1.4609c-6.2423 0.16483-16.8 4.4023-17.939 16.836-0.8179 9.3761 5.2563 19.727 18.43 19.953 9.7868 0.19419 18.901-6.0608 19.412-17.766 0.33556-7.9127-4.673-18.513-18.717-19.004-0.37373-0.023991-0.76939-0.03052-1.1855-0.019531zm1.3184 3.4219c6.6556 0.25532 14 3.8876 14.828 14.937 0.0253 5.7847-3.2371 14.417-15.197 15.023-6.0134-0.16755-14.79-3.1503-15.203-15.484 0.49328-6.2753 4.1352-14.162 15.572-14.477z"/>
   <path d="m212.69 1.8125v36.078l3.7344 0.0078-8e-3 -11.414 12.641-0.17188 8.25 11.586h4.1406l-8.7576-12.32c6.8933-2.423 8.4228-7.2205 8.1699-12.807-0.93986-9.3141-10.241-10.834-12.561-10.896zm3.7539 3.2695 11.777 0.066406c5.5395 0.58378 8.59 3.4235 8.9043 8.8164 0.22064 0.23956-0.0641 8.7955-9.7227 9.2598l-10.959 0.04297z"/>
   <path d="m270.25 49.672 1.2812-2.9375c-2.107-1.612-7.0925-3.4436-11.812-3.2812-4.1489 0.2193-7.8372 1.1296-10.344 3.8125-3.6659 4.7269-2.0229 8.2713-1.9375 8.9844 1.1951 4.1689 5.9014 5.6116 8.3252 6.329 3.5393 1.0029 7.2129 1.8603 10.425 3.2179 2.0191 1.1118 3.3683 2.7561 3.0986 5.6872-0.44736 1.9347-1.7444 4.953-8.0205 5.5159-9.1152 0.10076-11.411-2.6709-13.59-4.3669l-1.4253 2.8616c3.6726 4.1165 10.872 4.7668 13.214 4.6956 3.2978 0.18612 6.4752-0.61928 8.3969-1.6131 5.3458-2.6972 5.1784-7.8056 5.1707-8.3858 0.10858-4.9129-3.4723-6.7907-4.8754-7.457-1.9637-1.5896-13.272-3.1405-15.664-5.5361-1.4133-1.2195-1.7618-2.9305-1.6486-4.8546 0.27262-1.2684 1.2354-3.6718 4.0938-4.7188 0.63238-0.19808 1.5768-1.0567 7.598-0.79022 2.801 0.31669 5.261 1.4428 7.7145 2.8371z"/>
   <path d="m240.57 79.969v-3.2662h-21.735v-13.539h18.695v-3.125h-18.734v-13.031h20.906v-3.1328h-24.594l0.0312 36.055z"/>
   <path d="m140.9 43.829v36.078l3.7344 0.0078-8e-3 -11.414 12.641-0.17188 8.25 11.586h4.1406l-8.7576-12.32c6.8933-2.423 8.4228-7.2205 8.1699-12.807-0.93986-9.3141-10.241-10.834-12.561-10.896zm3.7539 3.2695 11.777 0.06641c5.5395 0.58378 8.59 3.4235 8.9043 8.8164 0.22064 0.23956-0.0641 8.7955-9.7227 9.2598l-10.959 0.04297z"/>
   <path d="m112.01 43.478c-6.2423 0.16483-16.8 4.4023-17.939 16.836-0.8179 9.3761 5.2563 19.727 18.43 19.953 9.7868 0.19419 18.901-6.0608 19.412-17.766 0.33556-7.9127-4.673-18.513-18.717-19.004-0.37373-0.02399-0.76939-0.03052-1.1855-0.01953zm1.3184 3.4219c6.6556 0.25532 14 3.8876 14.828 14.937 0.0253 5.7847-3.2371 14.417-15.197 15.023-6.0134-0.16755-14.79-3.1503-15.203-15.484 0.49328-6.2753 4.1352-14.162 15.572-14.477z"/>
   <path d="m51.633 79.938h-3.5703v-36.125h3.0859l15.75 26.876 15.589-26.806 3.0234-0.03906v36.074l-3.5234-0.0078-0.03019-29.043-14.286 24.384h-1.6904l-14.275-24.34z"/>
   <path d="m-0.052734 0.48242 0.099609 39.455 14.031 39.234h5.6562l14.312-39.406v-39.25h-7.4688l-9.6094 26.938-9.5156-26.971zm30.238 1.6172v37.631l-13.26 36.195-13.17-35.975 0.044922-37.586 10.475 29.145h5.4141z"/>
  </g>
 </g>
</svg>
